<?xml version="1.0" encoding="UTF-8"?>
<svg xmlns="http://www.w3.org/2000/svg" xmlns:xlink="http://www.w3.org/1999/xlink" width="366.1pt" height="138.79pt" viewBox="0 0 366.1 138.79" version="1.1">
<defs>
<clipPath id="clip1">
  <path d="M 0 0 L 366.101563 0 L 366.101563 138.789063 L 0 138.789063 Z M 0 0 "/>
</clipPath>
</defs>
<g id="surface1">
<path style=" stroke:none;fill-rule:nonzero;fill:rgb(92.89856%,10.998535%,13.699341%);fill-opacity:1;" d="M 321.90625 129.226563 L 44.199219 129.226563 C 22.289063 129.226563 9.832031 117.128906 9.832031 94.886719 L 9.832031 43.929688 C 9.832031 20.484375 21.089844 9.550781 44.199219 9.550781 L 321.90625 9.550781 C 345.421875 9.550781 356.261719 21.675781 356.261719 43.929688 L 356.261719 94.886719 C 356.261719 118.644531 344.226563 129.226563 321.90625 129.226563 "/>
<path style=" stroke:none;fill-rule:nonzero;fill:rgb(100%,100%,100%);fill-opacity:1;" d="M 134.027344 50.621094 L 131.058594 51.808594 L 129.835938 54.761719 L 129.835938 70.066406 C 129.835938 73.121094 128.84375 75.789063 126.921875 77.972656 C 124.964844 80.148438 122.691406 81.195313 119.953125 81.195313 C 117.238281 81.195313 114.941406 80.148438 112.980469 77.972656 C 111.046875 75.789063 110.054688 73.121094 110.054688 70.066406 L 110.054688 54.761719 L 108.859375 51.808594 L 105.910156 50.621094 L 102.992188 51.808594 L 101.761719 54.761719 L 101.761719 70.066406 C 101.761719 75.410156 103.546875 80.03125 107.074219 83.824219 C 110.625 87.625 114.953125 89.542969 119.953125 89.542969 C 123.53125 89.542969 126.824219 88.492188 129.796875 86.4375 C 129.601563 89.050781 128.632813 91.351563 126.910156 93.28125 C 124.964844 95.480469 122.691406 96.542969 119.953125 96.542969 C 116.53125 96.542969 113.886719 94.988281 111.894531 91.820313 L 109.3125 89.96875 L 106.1875 90.523438 L 104.34375 93.140625 L 104.875 96.246094 C 106.554688 98.921875 108.742188 101.046875 111.40625 102.570313 C 114.054688 104.074219 116.945313 104.847656 119.953125 104.847656 C 124.964844 104.847656 129.289063 102.910156 132.816406 99.105469 C 136.367188 95.339844 138.171875 90.695313 138.171875 85.363281 L 138.171875 54.761719 L 136.9375 51.808594 L 134.027344 50.621094 "/>
<path style=" stroke:none;fill-rule:nonzero;fill:rgb(100%,100%,100%);fill-opacity:1;" d="M 202.035156 47.941406 C 204.199219 45.753906 206.84375 44.65625 209.941406 44.65625 L 216.644531 44.65625 L 219.609375 43.464844 L 220.839844 40.488281 L 219.609375 37.566406 L 216.644531 36.347656 L 209.941406 36.347656 C 204.578125 36.347656 199.953125 38.261719 196.167969 42.054688 C 192.363281 45.847656 190.441406 50.476563 190.441406 55.820313 L 190.441406 70.09375 C 190.441406 75.449219 192.363281 80.070313 196.167969 83.875 C 199.953125 87.664063 204.578125 89.566406 209.941406 89.566406 L 216.644531 89.566406 L 219.609375 88.339844 L 220.839844 85.402344 L 219.609375 82.464844 L 216.644531 81.234375 L 209.941406 81.234375 C 206.84375 81.234375 204.199219 80.136719 202.035156 77.988281 C 199.863281 75.800781 198.75 73.148438 198.75 70.09375 L 198.75 67.90625 L 213.980469 67.90625 L 216.941406 66.730469 L 218.171875 63.753906 L 216.941406 60.789063 L 213.980469 59.613281 L 198.75 59.613281 L 198.75 55.820313 C 198.75 52.742188 199.851563 50.101563 202.035156 47.941406 "/>
<path style=" stroke:none;fill-rule:nonzero;fill:rgb(100%,100%,100%);fill-opacity:1;" d="M 285.222656 36.347656 L 282.324219 37.5625 L 281.097656 40.488281 L 281.097656 67.492188 C 281.097656 71.308594 280.074219 74.597656 278.109375 77.273438 C 276.128906 79.953125 273.851563 81.234375 271.121094 81.234375 C 268.363281 81.234375 266.074219 79.953125 264.082031 77.273438 C 262.113281 74.597656 261.105469 71.308594 261.105469 67.492188 L 261.105469 40.488281 L 259.890625 37.578125 L 256.964844 36.347656 L 254 37.5625 L 252.8125 40.488281 L 252.8125 67.492188 C 252.8125 71.308594 251.800781 74.597656 249.820313 77.273438 C 247.855469 79.953125 245.550781 81.234375 242.796875 81.234375 C 240.207031 81.234375 237.996094 80.03125 236.054688 77.574219 C 233.878906 74.867188 232.792969 71.492188 232.792969 67.558594 L 232.792969 40.488281 L 231.578125 37.5625 L 228.628906 36.347656 L 225.730469 37.5625 L 224.488281 40.488281 L 224.488281 67.558594 C 224.488281 73.433594 226.167969 78.542969 229.507813 82.761719 C 233.089844 87.277344 237.554688 89.566406 242.796875 89.566406 C 248.605469 89.566406 253.367188 86.863281 256.964844 81.519531 C 260.5625 86.863281 265.296875 89.566406 271.121094 89.566406 C 276.140625 89.566406 280.5 87.367188 284.058594 83.035156 C 287.632813 78.777344 289.417969 73.523438 289.417969 67.492188 L 289.417969 40.488281 L 288.199219 37.5625 L 285.222656 36.347656 "/>
<path style=" stroke:none;fill-rule:nonzero;fill:rgb(100%,100%,100%);fill-opacity:1;" d="M 323.835938 60.855469 C 321.390625 59.484375 317.417969 58.5625 311.984375 58.175781 C 307.765625 57.890625 304.996094 57.386719 303.808594 56.675781 C 302.460938 55.835938 301.785156 54.050781 301.785156 51.34375 C 301.785156 49.726563 302.253906 48.265625 303.121094 46.984375 C 304.183594 45.40625 305.566406 44.65625 307.402344 44.65625 L 322.722656 44.65625 L 325.699219 43.453125 L 326.878906 40.488281 L 325.6875 37.5625 L 322.722656 36.347656 L 307.402344 36.347656 C 303.289063 36.347656 299.847656 37.953125 297.183594 41.085938 C 294.773438 43.96875 293.503906 47.386719 293.453125 51.28125 C 293.429688 57.347656 295.574219 61.617188 299.835938 63.972656 C 302.226563 65.28125 306.109375 66.132813 311.414063 66.484375 C 315.761719 66.78125 318.570313 67.335938 319.785156 68.140625 C 321.210938 69.058594 321.867188 71.0625 321.816406 74.054688 C 321.753906 76.382813 321.015625 78.117188 319.554688 79.398438 C 318.117188 80.640625 316.046875 81.273438 313.40625 81.273438 L 297.644531 81.273438 L 294.695313 82.464844 L 293.453125 85.441406 L 294.695313 88.339844 L 297.644531 89.566406 L 313.40625 89.566406 C 318.273438 89.566406 322.296875 88.171875 325.339844 85.386719 C 328.414063 82.554688 330.019531 78.828125 330.125 74.261719 C 330.253906 67.84375 328.15625 63.339844 323.835938 60.855469 "/>
<path style=" stroke:none;fill-rule:nonzero;fill:rgb(100%,100%,100%);fill-opacity:1;" d="M 91.042969 56.339844 C 88.046875 52.921875 84.457031 51.007813 80.320313 50.710938 L 80.171875 50.695313 L 79.058594 50.644531 C 73.910156 50.644531 69.613281 52.898438 66.289063 57.335938 C 62.960938 52.898438 58.671875 50.644531 53.519531 50.644531 L 52.402344 50.695313 L 52.242188 50.710938 C 48.121094 51.007813 44.519531 52.921875 41.535156 56.339844 C 38.253906 60.144531 36.597656 64.761719 36.597656 70.09375 L 36.597656 85.402344 L 37.816406 88.339844 L 38.386719 88.84375 L 38.4375 88.882813 L 39.078125 89.230469 L 39.140625 89.269531 L 39.683594 89.425781 L 39.925781 89.492188 L 40.746094 89.566406 L 43.695313 88.339844 L 43.707031 88.339844 L 43.972656 88.003906 L 44.226563 87.703125 L 44.78125 86.332031 L 44.90625 85.402344 L 44.90625 70.09375 C 44.90625 67.015625 45.765625 64.359375 47.472656 62.1875 C 49.183594 60.015625 51.15625 58.953125 53.519531 58.953125 C 55.90625 58.953125 57.863281 60.015625 59.546875 62.1875 L 60.683594 63.910156 L 60.800781 64.152344 L 61.117188 64.828125 L 61.242188 65.136719 L 61.496094 65.796875 L 61.496094 65.8125 C 61.914063 67.132813 62.128906 68.554688 62.128906 70.09375 L 62.128906 85.402344 L 63.320313 88.339844 L 66.289063 89.566406 L 69.246094 88.339844 L 70.433594 85.402344 L 70.433594 70.09375 C 70.433594 68.554688 70.660156 67.132813 71.089844 65.8125 L 71.089844 65.796875 L 71.335938 65.136719 L 71.445313 64.828125 L 71.773438 64.152344 L 71.890625 63.910156 L 73.035156 62.1875 C 74.71875 60.015625 76.679688 58.953125 79.058594 58.953125 C 81.40625 58.953125 83.394531 60.015625 85.101563 62.1875 C 86.816406 64.359375 87.675781 67.015625 87.675781 70.09375 L 87.675781 85.402344 L 87.792969 86.371094 L 88.351563 87.703125 L 88.589844 88.003906 L 88.867188 88.339844 L 88.878906 88.339844 L 91.835938 89.566406 L 92.660156 89.492188 L 92.878906 89.425781 L 93.441406 89.269531 L 93.492188 89.246094 L 94.128906 88.882813 L 94.179688 88.84375 L 94.75 88.339844 L 95.984375 85.402344 L 95.984375 70.09375 C 95.984375 64.761719 94.328125 60.144531 91.042969 56.339844 "/>
<path style=" stroke:none;fill-rule:nonzero;fill:rgb(100%,100%,100%);fill-opacity:1;" d="M 178.675781 42.738281 L 176.410156 40.632813 L 176.359375 40.488281 L 176.359375 40.566406 C 173.746094 38.484375 170.820313 37.148438 167.609375 36.605469 L 167.558594 36.605469 L 166.105469 36.425781 L 165.785156 36.410156 L 164.382813 36.347656 L 164.234375 36.347656 L 162.828125 36.410156 L 162.511719 36.425781 L 161.050781 36.605469 L 160.996094 36.605469 C 157.785156 37.148438 154.851563 38.484375 152.257813 40.566406 L 152.257813 40.488281 L 152.199219 40.632813 L 149.9375 42.738281 C 145.964844 46.984375 143.945313 52.160156 143.945313 58.136719 L 143.945313 85.402344 L 145.179688 88.339844 L 145.21875 88.378906 L 148.097656 89.566406 L 148.136719 89.566406 L 151.0625 88.339844 L 152.296875 85.402344 L 152.296875 58.136719 C 152.296875 54.4375 153.488281 51.226563 155.835938 48.589844 C 158.164063 45.976563 161.011719 44.65625 164.296875 44.65625 C 167.597656 44.65625 170.445313 45.976563 172.769531 48.589844 C 175.121094 51.226563 176.320313 54.4375 176.320313 58.136719 L 176.320313 85.402344 L 177.546875 88.339844 L 180.480469 89.566406 L 180.519531 89.566406 L 183.378906 88.378906 L 183.414063 88.339844 L 183.4375 88.339844 L 184.664063 85.402344 L 184.664063 58.136719 C 184.664063 52.160156 182.652344 46.984375 178.675781 42.738281 "/>
<g clip-path="url(#clip1)" clip-rule="nonzero">
<path style=" stroke:none;fill-rule:nonzero;fill:rgb(92.89856%,10.998535%,13.699341%);fill-opacity:1;" d="M 35.640625 3.585938 C 17.964844 3.585938 3.589844 17.960938 3.589844 35.648438 L 3.589844 103.167969 C 3.589844 120.84375 17.964844 135.21875 35.640625 135.21875 L 330.460938 135.21875 C 348.136719 135.21875 362.523438 120.84375 362.523438 103.167969 L 362.523438 35.648438 C 362.523438 17.960938 348.136719 3.585938 330.460938 3.585938 Z M 330.460938 138.789063 L 35.640625 138.789063 C 15.992188 138.789063 0 122.796875 0 103.167969 L 0 35.648438 C 0 15.992188 15.992188 0 35.640625 0 L 330.460938 0 C 350.101563 0 366.097656 15.992188 366.097656 35.648438 L 366.097656 103.167969 C 366.097656 122.796875 350.101563 138.789063 330.460938 138.789063 "/>
</g>
</g>
</svg>
